<svg xmlns="http://www.w3.org/2000/svg" viewBox="0 0 640 220" role="img" aria-labelledby="title desc">
<title id="title">QuickRail</title><desc id="desc">QuickRail Indian railway logo with a modern train and saffron, white and green accents.</desc>
<defs><linearGradient id="train" x1="0" y1="0" x2="1" y2="1"><stop stop-color="#ff8a18"/><stop offset=".48" stop-color="#ff5b13"/><stop offset="1" stop-color="#0b3158"/></linearGradient><linearGradient id="blue" x1="0" y1="0" x2="1" y2="1"><stop stop-color="#123d6b"/><stop offset="1" stop-color="#071b32"/></linearGradient></defs>
<g fill="none" stroke-linecap="round"><path d="M25 75 Q125 -10 282 22" stroke="#ff6b17" stroke-width="9"/><path d="M34 87 Q140 5 285 34" stroke="#ffc56c" stroke-width="4"/><path d="M290 35 Q440 10 525 75" stroke="#008c52" stroke-width="8"/></g>
<g transform="translate(28 20)">
<path d="M0 112 L250 112 L294 140 L0 140Z" fill="#dce7ef"/><path d="M0 121 L252 121 L287 143 L0 143Z" fill="#122b45"/>
<path d="M12 92 L180 92 Q204 92 220 106 L260 126 L12 126Z" fill="#244968" stroke="#0a2139" stroke-width="3"/>
<path d="M12 92 L180 92 Q204 92 220 106 L260 126 L12 126Z" fill="url(#blue)"/>
<path d="M16 100 L177 100 Q195 100 210 112 L24 112Z" fill="#d8e7f0"/>
<g fill="#ff8a18"><path d="M10 88 L176 88 Q204 88 221 104 L255 121 L234 122 L205 109 Q194 102 176 102 L10 102Z"/></g>
<g fill="#8dd4ef" stroke="#071b32" stroke-width="2"><rect x="27" y="93" width="22" height="13" rx="2"/><rect x="56" y="93" width="22" height="13" rx="2"/><rect x="85" y="93" width="22" height="13" rx="2"/><rect x="114" y="93" width="22" height="13" rx="2"/><rect x="143" y="93" width="22" height="13" rx="2"/></g>
<path d="M188 70 Q210 65 225 84 L256 121 L220 121 L191 103Z" fill="url(#train)" stroke="#0b2238" stroke-width="3"/>
<path d="M196 74 Q213 72 223 86 L238 105 L210 105Z" fill="#9cdcf2" stroke="#0b2238" stroke-width="3"/>
<path d="M201 79 L218 79 L228 91 L206 91Z" fill="#122b45"/>
<path d="M230 109 L245 109 L251 118 L235 118Z" fill="#fff0b0"/>
<circle cx="53" cy="127" r="10" fill="#071b32"/><circle cx="53" cy="127" r="4" fill="#8c9fb0"/><circle cx="180" cy="127" r="10" fill="#071b32"/><circle cx="180" cy="127" r="4" fill="#8c9fb0"/><circle cx="237" cy="129" r="9" fill="#071b32"/><circle cx="237" cy="129" r="3.5" fill="#8c9fb0"/>
<path d="M202 61 L230 45 M215 64 L246 48" stroke="#153a5c" stroke-width="2"/>
</g>
<g font-family="Arial,Helvetica,sans-serif" font-weight="800" letter-spacing="-4"><text x="280" y="145" font-size="68" fill="#0b2c54">Quick</text><text x="434" y="145" font-size="68" fill="#ff6816">Rail</text></g>
<path d="M285 164 H592" stroke="#0b2c54" stroke-width="2"/><path d="M285 164 H315" stroke="#ff6816" stroke-width="4"/>
<text x="287" y="187" font-family="Arial,Helvetica,sans-serif" font-size="15" font-weight="700" letter-spacing="3.2" fill="#0b2c54">REIMAGINING THE RAILWAY JOURNEY</text>
<path d="M14 202 Q305 220 616 202" fill="none" stroke="#008c52" stroke-width="5"/><path d="M14 202 Q170 212 280 209" fill="none" stroke="#ff6816" stroke-width="5"/>
</svg>